<svg xmlns="http://www.w3.org/2000/svg" width="18" height="16" viewBox="0 0 18 16">
    <path fill="#0A4D8C" fill-rule="nonzero" d="M6.049 13.462c.084-.02.171-.03.262-.03h7.702V9.75a1.125 1.125 0 0 1 2.25 0v4.807c0 .62-.503 1.125-1.125 1.125H6.311c-.064 0-.126-.006-.186-.016-.085.02-.172.03-.263.03H1.717a1.125 1.125 0 0 1-1.125-1.124V1.553c0-.621.504-1.125 1.125-1.125h8.249a1.125 1.125 0 1 1 0 2.25H2.842v10.769h3.02c.064 0 .126.005.187.015zm10.076-9.876L14.539 2l.798-.799a1.125 1.125 0 0 1 1.587 1.586l-.799.8zm-2.374-.799l1.598 1.587-6.593 6.581-1.608.022.01-1.608 6.593-6.582z"/>
</svg>
