<svg xmlns="http://www.w3.org/2000/svg" width="85" height="60" viewBox="0 0 85 60">
    <g fill="none" fill-rule="evenodd">
        <g>
            <circle cx="30" cy="30" r="15.484" fill="#32B2E4"/>
            <path fill="#063561" fill-rule="nonzero" d="M30 8.71C18.26 8.71 8.71 18.26 8.71 30c0 11.74 9.55 21.29 21.29 21.29 11.74 0 21.29-9.55 21.29-21.29 0-11.74-9.55-21.29-21.29-21.29zm0 40.645c-10.672 0-19.355-8.683-19.355-19.355S19.328 10.645 30 10.645 49.355 19.328 49.355 30 40.672 49.355 30 49.355z"/>
            <path fill="#FFF" d="M29.399 29.29l-5.546-3.601a.968.968 0 1 0-1.054 1.623l6.33 4.111a1 1 0 0 0 1.383-.294l6.835-10.524a.968.968 0 1 0-1.623-1.054l-6.325 9.74z"/>
            <circle cx="30" cy="12.548" r="1" fill="#063561"/>
            <circle cx="30" cy="47.452" r="1" fill="#063561"/>
            <circle cx="47.452" cy="30" r="1" fill="#063561"/>
            <circle cx="12.548" cy="30" r="1" fill="#063561"/>
            <path fill="#32B2E4" d="M6.483 42.153l-.759 1.899A27.89 27.89 0 0 1 1.935 30C1.935 14.526 14.525 1.935 30 1.935a28.13 28.13 0 0 1 17.637 6.24l1.218-1.504A30.073 30.073 0 0 0 30 0C13.457 0 0 13.457 0 30c0 5.35 1.425 10.539 4.116 15.127l-2.01-.402a.967.967 0 1 0-.38 1.897l4.68.936L8.28 42.87a.967.967 0 0 0-.54-1.258.968.968 0 0 0-1.258.54z"/>
            <circle cx="8.71" cy="49.355" r="1" fill="#063561"/>
            <path fill="#32B2E4" d="M55.884 14.873l2.01.402a.967.967 0 1 0 .38-1.898l-4.679-.936-1.875 4.688a.967.967 0 0 0 .539 1.257.968.968 0 0 0 1.257-.54l.76-1.899A27.896 27.896 0 0 1 58.065 30c0 15.474-12.59 28.065-28.065 28.065a28.13 28.13 0 0 1-17.637-6.24l-1.218 1.504A30.073 30.073 0 0 0 30 60c16.543 0 30-13.457 30-30 0-5.35-1.425-10.539-4.116-15.127z"/>
            <circle cx="51.29" cy="10.645" r="1" fill="#063561"/>
        </g>
        <g fill="#063561">
            <path d="M63.207 13h5a1 1 0 1 1 0 2h-5a1 1 0 1 1 0-2zM63.207 20h10a1 1 0 1 1 0 2h-10a1 1 0 1 1 0-2zM64.207 27h15a1 1 0 1 1 0 2h-15a1 1 0 1 1 0-2zM64.207 34h19a1 1 0 1 1 0 2h-19a1 1 0 1 1 0-2zM62.207 41h13a1 1 0 1 1 0 2h-13a1 1 0 1 1 0-2zM57.985 48h5.444c.43 0 .778.447.778 1 0 .553-.348 1-.778 1h-5.444c-.43 0-.778-.447-.778-1 0-.553.348-1 .778-1z"/>
        </g>
    </g>
</svg>
